<mxfile host="app.diagrams.net" modified="2022-08-22T10:55:25.001Z" agent="5.0 (Windows NT 10.0; Win64; x64) AppleWebKit/537.36 (KHTML, like Gecko) Chrome/104.0.0.0 Safari/537.36" etag="lmNHsuEulqISpFzFCH_0" version="20.2.4" type="github">
  <diagram id="wEKSGGPF87rSig4s3-Ul" name="Sida-1">
    <mxGraphModel dx="1422" dy="825" grid="1" gridSize="10" guides="1" tooltips="1" connect="1" arrows="1" fold="1" page="1" pageScale="1" pageWidth="827" pageHeight="1169" math="0" shadow="0">
      <root>
        <mxCell id="0" />
        <mxCell id="1" parent="0" />
        <mxCell id="BBzz1Qv0iKT6kKimgJni-3" value="" style="edgeStyle=orthogonalEdgeStyle;rounded=0;orthogonalLoop=1;jettySize=auto;html=1;" edge="1" parent="1" source="BBzz1Qv0iKT6kKimgJni-1" target="BBzz1Qv0iKT6kKimgJni-2">
          <mxGeometry relative="1" as="geometry" />
        </mxCell>
        <mxCell id="BBzz1Qv0iKT6kKimgJni-1" value="Spelare som åker kan åka fram och tillbaka" style="rounded=1;whiteSpace=wrap;html=1;" vertex="1" parent="1">
          <mxGeometry x="80" y="50" width="120" height="60" as="geometry" />
        </mxCell>
        <mxCell id="BBzz1Qv0iKT6kKimgJni-5" value="" style="edgeStyle=orthogonalEdgeStyle;rounded=0;orthogonalLoop=1;jettySize=auto;html=1;" edge="1" parent="1" source="BBzz1Qv0iKT6kKimgJni-2" target="BBzz1Qv0iKT6kKimgJni-4">
          <mxGeometry relative="1" as="geometry" />
        </mxCell>
        <mxCell id="BBzz1Qv0iKT6kKimgJni-2" value="Begränsa X-led förflyttning" style="whiteSpace=wrap;html=1;rounded=1;" vertex="1" parent="1">
          <mxGeometry x="280" y="50" width="120" height="60" as="geometry" />
        </mxCell>
        <mxCell id="BBzz1Qv0iKT6kKimgJni-4" value="" style="whiteSpace=wrap;html=1;rounded=1;" vertex="1" parent="1">
          <mxGeometry x="480" y="50" width="120" height="60" as="geometry" />
        </mxCell>
      </root>
    </mxGraphModel>
  </diagram>
</mxfile>
